# xmcd
#
# Track frame offsets: 
#        150
#        12335
#        27661
#        43281
#        57039
#        68147
#        81513
#        95783
#        106567
#        116383
#
# Disc length: 1710 seconds
#
# Revision: 0
# Processed by: cddbd v1.5.1PL0 Copyright (c) Steve Scherf et al.
# Submitted via: ExactAudioCopy v0.95a5
#
DISCID=8206ac0a
DTITLE=Various Artist - Real 60's: The Psychadelic Hits [CD2]
DYEAR=2003
DGENRE=Pop/Rock
TTITLE0=The Lovin' Spoonful - Six O'clock
TTITLE1=The 5th Dimension - Sweet Blindness
TTITLE2=The Guess Who - Undun
TTITLE3=The Box Tops - Neon Rainbow
TTITLE4=Syndicate Of Sound - Little Girl
TTITLE5=Gale Garnett - We'll Sing In The Sunshine
TTITLE6=Merilee Rush and The Turnabouts - Angel Of The Morning
TTITLE7=The Scaffold - Thank U Very Much
TTITLE8=The Innocence - There's Got To Be A Word!
TTITLE9=Ohio Express - Chewy Chewy
EXTD=
EXTT0=
EXTT1=
EXTT2=
EXTT3=
EXTT4=
EXTT5=
EXTT6=
EXTT7=
EXTT8=
EXTT9=
PLAYORDER=
